<svg xmlns="http://www.w3.org/2000/svg" width="1024" height="279.38" xmlns:v="https://vecta.io/nano"><style><![CDATA[.B{opacity:.25}]]></style><path d="M0 0v279.38h1024V0z" fill="#ba0c2f"/><path d="M324.75 0v279.38h70.217V0z" fill="#fff"/><path d="M348.16 0v279.38h23.406V0z" fill="#012169"/><path d="M418.38 0v279.38h187.25V0z" fill="#ffcd00"/><path d="M699.25 0v279.38h-70.217V0z" fill="#fff"/><path d="M675.84 0v279.38h-23.406V0z" fill="#012169"/><g fill-rule="evenodd"><use href="#B" class="B"/><use href="#B" y="-19.268" class="B"/><use href="#B" y="-38.535" class="B"/><use href="#B" y="-57.803" class="B"/><use href="#B" y="-77.071" class="B"/><use href="#B" y="-96.338" class="B"/><use href="#B" y="-115.606" class="B"/><use href="#B" y="-134.874" class="B"/><use href="#B" y="-154.142" class="B"/><use href="#B" y="-173.409" class="B"/><use href="#B" y="-192.677" class="B"/><use href="#B" y="-211.945" class="B"/><use href="#B" y="-231.212" class="B"/><path d="M0 9.603h23.406v9.634H0V9.603z" class="B"/><use href="#C" class="B"/><use href="#C" y="-19.268" class="B"/><use href="#C" y="-38.535" class="B"/><use href="#C" y="-57.803" class="B"/><use href="#C" y="-77.071" class="B"/><use href="#C" y="-96.338" class="B"/><use href="#C" y="-115.606" class="B"/><use href="#C" y="-134.874" class="B"/><use href="#C" y="-154.142" class="B"/><use href="#C" y="-173.409" class="B"/><use href="#C" y="-192.677" class="B"/><use href="#C" y="-211.945" class="B"/><use href="#C" y="-231.212" class="B"/><use href="#C" y="-250.48" class="B"/><use href="#D" class="B"/><use href="#D" y="-19.268" class="B"/><use href="#D" y="-38.535" class="B"/><use href="#D" y="-57.803" class="B"/><use href="#D" y="-77.071" class="B"/><use href="#D" y="-96.338" class="B"/><use href="#D" y="-115.606" class="B"/><use href="#D" y="-134.874" class="B"/><use href="#D" y="-154.142" class="B"/><use href="#D" y="-173.409" class="B"/><use href="#D" y="-192.677" class="B"/><use href="#D" y="-211.945" class="B"/><use href="#D" y="-231.212" class="B"/><path d="M1000.561 9.603h23.406v9.634h-23.406V9.603z" class="B"/><path d="M23.406 0h977.19v9.634H23.406V0z" class="B"/></g><defs ><path id="B" d="M0 260.083h23.406v9.634H0v-9.634z"/><path id="C" d="M23.406 269.783h977.186v9.634H23.406v-9.634z"/><path id="D" d="M1000.561 260.083h23.406v9.634h-23.406v-9.634z"/></defs></svg>